<svg width="61" height="54" viewBox="0 0 61 54" fill="none" xmlns="http://www.w3.org/2000/svg">
<path fill-rule="evenodd" clip-rule="evenodd" d="M18.5598 14.2788C13.8048 22.8483 17.5647 33.5812 25.7406 37.7147C28.8297 33.4243 29.3205 31.0107 29.0678 30.0044C28.349 29.5814 27.6766 29.0527 27.1395 28.468C27.1393 28.4678 27.139 28.4678 27.1388 28.468C27.1386 28.4682 27.1383 28.4682 27.1381 28.468C25.858 27.0293 25.0745 25.2421 25.0007 23.1994L25.0009 23.1988L25.0014 23.1986C25.0018 23.1985 25.0021 23.1982 25.0021 23.1977C24.8758 21.0255 26.2723 18.5739 27.5821 16.2742C27.8392 15.823 28.0929 15.3776 28.3311 14.9413C28.3326 14.9385 28.3307 14.935 28.3275 14.9348C28.3268 14.9348 28.3262 14.9346 28.3257 14.9343C28.3249 14.9339 28.3243 14.9332 28.3239 14.9324C28.3232 14.9312 28.3232 14.9296 28.324 14.9282L33.8207 5.17898C36.0126 1.29136 40.9684 -0.0637518 44.8334 2.16774C48.7209 4.35957 50.1082 9.33353 47.9164 13.221L45.2536 17.9856C47.3858 23.9374 49.0875 26.5059 50.168 27.1976L55.3639 17.9819C55.4888 17.7603 55.8105 17.7536 55.9377 17.974L60.6488 26.1338C61.0256 26.7864 61.0256 27.5903 60.6488 28.2429L46.4705 52.8004C46.0937 53.453 45.3975 53.855 44.644 53.855H35.3672C34.9581 53.855 34.7076 53.4008 34.9085 53.0444C35.3544 52.1616 36.2668 50.589 37.3464 48.7282L37.3464 48.7281L37.3465 48.728C39.9723 44.2021 43.587 37.9717 43.8825 35.8177C43.8835 35.8107 43.887 35.8049 43.8926 35.8005C43.895 35.7987 43.8971 35.7964 43.8987 35.7939C43.9004 35.7914 43.9016 35.7885 43.9023 35.7855C44.9145 31.6141 44.1878 27.337 42.1664 23.519C42.1655 23.5172 42.163 23.5172 42.162 23.5189C42.1615 23.5198 42.1605 23.5203 42.1595 23.5202L42.1582 23.52C42.1568 23.5198 42.1556 23.519 42.155 23.5178C40.6193 20.7176 38.0332 18.2177 34.9826 16.6823C31.8506 20.6902 31.1647 23.0704 31.2904 24.1725C32.1238 24.5934 32.9099 25.1599 33.5944 25.8891C33.5947 25.8894 33.5952 25.8894 33.5954 25.8891C33.5957 25.8888 33.5961 25.8888 33.5964 25.889C34.4551 26.7305 35.5453 28.471 35.7143 30.6096C35.7143 30.6098 35.7141 30.6101 35.7139 30.6101L35.7137 30.6103L35.7135 30.6107C36.0449 33.1024 34.4419 35.9222 32.9774 38.4983L32.9766 38.4998L32.9758 38.5011C32.7974 38.8149 32.6211 39.1252 32.4505 39.4307C32.4503 39.4311 32.4505 39.4316 32.4508 39.4318C32.4512 39.432 32.4513 39.4325 32.4511 39.4329C31.7788 40.628 30.5245 42.8516 29.337 44.9567L29.327 44.9743L29.3227 44.9821C28.3974 46.6222 27.5144 48.1875 26.981 49.1348C24.7892 53.0223 19.8152 54.4096 15.9277 52.2178C12.0403 50.0259 10.6529 45.052 12.8448 41.1645L15.228 36.9C13.2568 31.2389 11.636 28.4297 10.5095 27.3365L5.48185 36.2538C5.35779 36.4738 5.03844 36.4803 4.91213 36.2615L0.282558 28.2429C-0.0941856 27.5903 -0.0941861 26.7864 0.282557 26.1338L14.4609 1.57625C14.8376 0.92371 15.5339 0.521729 16.2874 0.521729L25.3892 0.521729C25.8027 0.521729 26.0558 0.980788 25.8527 1.34097L18.5877 14.2265L18.5759 14.2487L18.5758 14.2488C18.5706 14.2588 18.5653 14.2688 18.5598 14.2788Z" fill="white"/>
</svg>
