<svg width="43" height="38" viewBox="0 0 43 38" fill="none" xmlns="http://www.w3.org/2000/svg">
<path fill-rule="evenodd" clip-rule="evenodd" d="M13.0204 9.65154C9.68439 15.6638 12.3224 23.1938 18.0587 26.0934C20.2253 23.0844 20.5702 21.3912 20.3935 20.6846C19.8888 20.3877 19.4166 20.0166 19.0395 19.6061C19.0394 19.6059 19.0392 19.6059 19.0391 19.6061C19.0389 19.6062 19.0387 19.6062 19.0386 19.606C18.1405 18.5968 17.5908 17.3429 17.539 15.9098L17.5391 15.9095L17.5395 15.9093C17.5398 15.9092 17.54 15.909 17.54 15.9087C17.4514 14.3848 18.4311 12.6648 19.3501 11.0514L19.3501 11.0513C19.5304 10.7348 19.7084 10.4224 19.8755 10.1164C19.8766 10.1144 19.8752 10.1119 19.873 10.1118C19.8725 10.1118 19.8721 10.1116 19.8717 10.1114L19.8715 10.1113L19.8708 10.1107C19.87 10.1097 19.8698 10.1084 19.8705 10.1072L23.7268 3.26753C25.2645 0.540143 28.7413 -0.41054 31.4528 1.15498C34.1801 2.69266 35.1534 6.18217 33.6157 8.90945L31.748 12.2513C33.2436 16.4265 34.4374 18.2288 35.1955 18.7145L38.8405 12.2495C38.9283 12.0938 39.1542 12.0892 39.2435 12.2439L42.5485 17.9683C42.8128 18.4261 42.8128 18.9901 42.5485 19.4479L32.6016 36.6764C32.3373 37.1342 31.8489 37.4162 31.3202 37.4162H24.8117C24.5247 37.4162 24.349 37.0976 24.4899 36.8476C24.8027 36.2283 25.4429 35.125 26.2003 33.8195C28.0424 30.6443 30.5784 26.2733 30.7857 24.7622C30.7864 24.7572 30.7889 24.7532 30.7928 24.7501L30.795 24.7481C30.7972 24.7457 30.7988 24.7428 30.7996 24.7395C31.5097 21.8131 30.9999 18.8125 29.5817 16.1339C29.5811 16.1327 29.5793 16.1327 29.5787 16.1339C29.5783 16.1345 29.5776 16.1349 29.5769 16.1347L29.576 16.1346L29.5748 16.1342C29.5743 16.1339 29.574 16.1335 29.5737 16.1331C28.4964 14.1687 26.6822 12.4149 24.5421 11.3377C22.3448 14.1496 21.8637 15.8195 21.952 16.5926C22.5365 16.8879 23.0879 17.2852 23.568 17.7967C23.5682 17.7969 23.5686 17.7969 23.5687 17.7967C23.5689 17.7965 23.5692 17.7964 23.5694 17.7966C24.1719 18.387 24.9367 19.608 25.0552 21.1084L25.0552 21.1086L25.055 21.1087C25.0548 21.1088 25.0547 21.1089 25.0547 21.1091C25.2872 22.8572 24.1626 24.8355 23.1352 26.6427L23.1346 26.6437C23.0092 26.8642 22.8853 27.0822 22.7655 27.2969C22.7654 27.2972 22.7655 27.2975 22.7657 27.2976C22.766 27.2978 22.7661 27.2981 22.7659 27.2984C22.2953 28.135 21.418 29.6902 20.5865 31.1643L20.5818 31.1726L20.5809 31.1741C19.9283 32.3311 19.3045 33.4369 18.9283 34.1048C17.3906 36.8321 13.9011 37.8054 11.1739 36.2677C8.44658 34.73 7.4733 31.2405 9.01098 28.5132L10.6833 25.5207C9.30034 21.5489 8.16319 19.5783 7.37295 18.8116L3.8455 25.0681C3.75853 25.2223 3.53469 25.2268 3.44616 25.0735L0.19823 19.4479C-0.0660764 18.9901 -0.0660768 18.4261 0.19823 17.9683L10.1451 0.739803C10.4094 0.282011 10.8979 8.25239e-08 11.4265 7.62084e-08L17.8115 0C18.1017 -3.46336e-09 18.2793 0.322173 18.1368 0.574948L13.04 9.61486L13.0317 9.63043C13.028 9.6375 13.0243 9.64455 13.0204 9.65154Z" fill="#828282"/>
</svg>
